<?xml version="1.0" encoding="utf-8"?>
<!-- Svg Vector Icons : http://www.onlinewebfonts.com/icon -->
<!DOCTYPE svg PUBLIC "-//W3C//DTD SVG 1.1//EN" "http://www.w3.org/Graphics/SVG/1.1/DTD/svg11.dtd">
<svg version="1.1" xmlns="http://www.w3.org/2000/svg" xmlns:xlink="http://www.w3.org/1999/xlink" x="0px" y="0px" viewBox="0 0 256 256" enable-background="new 256 0 0 0"  xml:space="preserve" >
<metadata> Svg Vector Icons : http://www.onlinewebfonts.com/icon </metadata>
<g><g><g><g><path fill="#4577ae" d="M211.1,15.1h-5v-2.8c0-4.1-3.3-7.4-7.4-7.4c-4.1,0-7.4,3.3-7.4,7.4v2.8h-13.5v-2.8c0-4.1-3.3-7.4-7.4-7.4c-4.1,0-7.4,3.3-7.4,7.4v2.8h-13.5v-2.8c0-4.1-3.3-7.4-7.4-7.4c-4.1,0-7.4,3.3-7.4,7.4v2.8h-13.5v-2.8c0-4.1-3.3-7.4-7.4-7.4c-4.1,0-7.4,3.3-7.4,7.4v2.8H92.9v-2.8c0-4.1-3.3-7.4-7.4-7.4c-4.1,0-7.4,3.3-7.4,7.4v2.8H64.6v-2.8c0-4.1-3.3-7.4-7.4-7.4c-4.1,0-7.4,3.3-7.4,7.4v2.8h-5C25.6,15.1,10,30.7,10,49.9v166.3c0,19.2,15.6,34.8,34.9,34.8h166.3c19.2,0,34.9-15.6,34.9-34.9V49.9C246,30.7,230.4,15.1,211.1,15.1z M195.1,12.3c0-2,1.7-3.7,3.7-3.7s3.7,1.7,3.7,3.7v47.8c0,2-1.7,3.7-3.7,3.7s-3.7-1.7-3.7-3.7V12.3z M166.8,12.3c0-2,1.7-3.7,3.7-3.7c2,0,3.7,1.7,3.7,3.7v47.8c0,2-1.7,3.7-3.7,3.7c-2,0-3.7-1.7-3.7-3.7V12.3z M138.5,12.3c0-2,1.7-3.7,3.7-3.7c2,0,3.7,1.7,3.7,3.7v47.8c0,2-1.7,3.7-3.7,3.7c-2,0-3.7-1.7-3.7-3.7V12.3z M110.2,12.3c0-2,1.7-3.7,3.7-3.7s3.7,1.7,3.7,3.7v47.8c0,2-1.7,3.7-3.7,3.7s-3.7-1.7-3.7-3.7V12.3z M81.9,12.3c0-2,1.7-3.7,3.7-3.7c2,0,3.7,1.7,3.7,3.7v47.8c0,2-1.7,3.7-3.7,3.7c-2,0-3.7-1.7-3.7-3.7V12.3z M53.6,12.3c0-2,1.7-3.7,3.7-3.7c2,0,3.7,1.7,3.7,3.7v47.8c0,2-1.7,3.7-3.7,3.7c-2,0-3.7-1.7-3.7-3.7V12.3z M228.2,216.2c0,9.4-7.7,17.1-17.1,17.1H44.9c-9.4,0-17.1-7.7-17.1-17.1V49.9c0-9.4,7.7-17.1,17.1-17.1h5v18.5c-2.5,2.1-4.1,5.2-4.1,8.8c0,6.3,5.1,11.5,11.5,11.5s11.5-5.1,11.5-11.5c0-3.5-1.6-6.6-4.1-8.8V32.8h13.5v18.5c-2.5,2.1-4.1,5.2-4.1,8.8c0,6.3,5.1,11.5,11.5,11.5s11.5-5.1,11.5-11.5c0-3.5-1.6-6.6-4.1-8.8V32.8h13.5v18.5c-2.5,2.1-4.1,5.2-4.1,8.8c0,6.3,5.1,11.5,11.5,11.5c6.4,0,11.5-5.1,11.5-11.5c0-3.5-1.6-6.6-4.1-8.8V32.8h13.5v18.5c-2.5,2.1-4.1,5.2-4.1,8.8c0,6.3,5.1,11.5,11.5,11.5s11.5-5.1,11.5-11.5c0-3.5-1.6-6.6-4.1-8.8V32.8h13.5v18.5c-2.5,2.1-4.1,5.2-4.1,8.8c0,6.3,5.1,11.5,11.5,11.5c6.4,0,11.5-5.1,11.5-11.5c0-3.5-1.6-6.6-4.1-8.8V32.8h13.5v18.5c-2.5,2.1-4.1,5.2-4.1,8.8c0,6.3,5.1,11.5,11.5,11.5s11.5-5.1,11.5-11.5c0-3.5-1.6-6.6-4.1-8.8V32.8h5c9.4,0,17.1,7.7,17.1,17.1L228.2,216.2L228.2,216.2z"/><path fill="#4577ae" d="M88.4 101.5h33.9v33.9h-33.9z"/><path fill="#4577ae" d="M133.7 101.5h33.9v33.9h-33.9z"/><path fill="#4577ae" d="M178.9 101.5h33.9v33.9h-33.9z"/><path fill="#4577ae" d="M43.2 141.7h33.9v33.9h-33.9z"/><path fill="#4577ae" d="M88.4 141.7h33.9v33.9h-33.9z"/><path fill="#4577ae" d="M133.7 141.7h33.9v33.9h-33.9z"/><path fill="#4577ae" d="M178.9 141.7h33.9v33.9h-33.9z"/><path fill="#4577ae" d="M43.2 181.9h33.9v33.9h-33.9z"/><path fill="#4577ae" d="M88.4 181.9h33.9v33.9h-33.9z"/><path fill="#4577ae" d="M133.7 181.9h33.9v33.9h-33.9z"/></g></g><g></g><g></g><g></g><g></g><g></g><g></g><g></g><g></g><g></g><g></g><g></g><g></g><g></g><g></g><g></g></g></g>
</svg>